<svg width="32" height="32" viewBox="0 0 32 32" fill="none" xmlns="http://www.w3.org/2000/svg">
<path d="M16 8.00001C17.4728 8.00001 18.6667 6.8061 18.6667 5.33334C18.6667 3.86058 17.4728 2.66667 16 2.66667C14.5273 2.66667 13.3334 3.86058 13.3334 5.33334C13.3334 6.8061 14.5273 8.00001 16 8.00001Z" stroke="#7F4988" stroke-width="2" stroke-linecap="round" stroke-linejoin="round"/>
<path d="M13.6 4.26666C7.33329 5.33333 2.66663 10.8 2.66663 17.3333C2.66663 18.0406 2.94758 18.7189 3.44767 19.2189C3.94777 19.719 4.62605 20 5.33329 20C6.04054 20 6.71881 19.719 7.21891 19.2189C7.71901 18.7189 7.99996 18.0406 7.99996 17.3333V16C7.99996 15.2928 8.28091 14.6145 8.78101 14.1144C9.2811 13.6143 9.95938 13.3333 10.6666 13.3333C11.3739 13.3333 12.0521 13.6143 12.5522 14.1144C13.0523 14.6145 13.3333 15.2928 13.3333 16V21.3333C13.3333 22.0406 13.6142 22.7189 14.1143 23.2189C14.6144 23.719 15.2927 24 16 24C16.7072 24 17.3855 23.719 17.8856 23.2189C18.3857 22.7189 18.6666 22.0406 18.6666 21.3333V16C18.6666 15.2928 18.9476 14.6145 19.4477 14.1144C19.9478 13.6143 20.626 13.3333 21.3333 13.3333C22.0405 13.3333 22.7188 13.6143 23.2189 14.1144C23.719 14.6145 24 15.2928 24 16V17.3333C24 18.0406 24.2809 18.7189 24.781 19.2189C25.2811 19.719 25.9594 20 26.6666 20C27.3739 20 28.0521 19.719 28.5522 19.2189C29.0523 18.7189 29.3333 18.0406 29.3333 17.3333C29.3333 10.8 24.6666 5.33333 18.4 4.26666" stroke="#7F4988" stroke-width="2" stroke-linecap="round" stroke-linejoin="round"/>
<path d="M4.26672 19.7333C4.84233 22.418 6.32117 24.824 8.45647 26.55C10.5918 28.2761 13.2544 29.2176 16.0001 29.2176C18.7457 29.2176 21.4083 28.2761 23.5436 26.55C25.6789 24.824 27.1578 22.418 27.7334 19.7333" stroke="#7F4988" stroke-width="2" stroke-linecap="round" stroke-linejoin="round"/>
</svg>
